<svg width="16" height="16" viewBox="0 0 16 16" fill="none" xmlns="http://www.w3.org/2000/svg">
<path d="M4.98777 9.38904C4.92374 9.90374 4.72097 10.3015 4.37947 10.5822C4.04033 10.8607 3.58855 11 3.02412 11C2.41226 11 1.92135 10.7939 1.55139 10.3817C1.1838 9.96947 1 9.418 1 8.72727V8.25936C1 7.80704 1.08538 7.40931 1.25613 7.06618C1.42925 6.72304 1.67352 6.46012 1.98894 6.27741C2.30436 6.09247 2.66957 6 3.0846 6C3.6348 6 4.07591 6.14483 4.40792 6.43449C4.73994 6.72193 4.93322 7.12077 4.98777 7.63102H4.3012C4.24192 7.24332 4.11267 6.96257 3.91346 6.78877C3.71662 6.61497 3.44033 6.52807 3.0846 6.52807C2.64823 6.52807 2.30554 6.67959 2.05653 6.98262C1.80989 7.28565 1.68657 7.7168 1.68657 8.27607V8.74733C1.68657 9.2754 1.80396 9.69541 2.03874 10.0074C2.27352 10.3193 2.60199 10.4753 3.02412 10.4753C3.40357 10.4753 3.69409 10.3951 3.89567 10.2346C4.09962 10.072 4.2348 9.79011 4.3012 9.38904H4.98777Z" fill="black"/>
<path d="M6.16619 10.9332V6.06684H7.62826C8.07885 6.06684 8.47728 6.16043 8.82352 6.34759C9.16977 6.53476 9.43657 6.80102 9.62392 7.14639C9.81365 7.49176 9.90969 7.88837 9.91207 8.33623V8.64706C9.91207 9.10606 9.8172 9.50824 9.62748 9.85361C9.44013 10.199 9.17095 10.4641 8.81996 10.6491C8.47135 10.834 8.06462 10.9287 7.5998 10.9332H6.16619ZM6.8492 6.59492V10.4084H7.56778C8.09427 10.4084 8.50336 10.2547 8.79506 9.94719C9.08914 9.63971 9.23617 9.20187 9.23617 8.63369V8.3496C9.23617 7.79701 9.09744 7.36809 8.81996 7.06283C8.54486 6.75535 8.15356 6.59938 7.64605 6.59492H6.8492Z" fill="black"/>
<path d="M15 9.38904C14.936 9.90374 14.7332 10.3015 14.3917 10.5822C14.0526 10.8607 13.6008 11 13.0364 11C12.4245 11 11.9336 10.7939 11.5636 10.3817C11.196 9.96947 11.0122 9.418 11.0122 8.72727V8.25936C11.0122 7.80704 11.0976 7.40931 11.2684 7.06618C11.4415 6.72304 11.6858 6.46012 12.0012 6.27741C12.3166 6.09247 12.6818 6 13.0968 6C13.647 6 14.0881 6.14483 14.4202 6.43449C14.7522 6.72193 14.9455 7.12077 15 7.63102H14.3134C14.2541 7.24332 14.1249 6.96257 13.9257 6.78877C13.7288 6.61497 13.4526 6.52807 13.0968 6.52807C12.6605 6.52807 12.3178 6.67959 12.0688 6.98262C11.8221 7.28565 11.6988 7.7168 11.6988 8.27607V8.74733C11.6988 9.2754 11.8162 9.69541 12.051 10.0074C12.2858 10.3193 12.6142 10.4753 13.0364 10.4753C13.4158 10.4753 13.7063 10.3951 13.9079 10.2346C14.1119 10.072 14.247 9.79011 14.3134 9.38904H15Z" fill="black"/>
<path d="M4 0.5H12V-0.5H4V0.5ZM15.5 4V12H16.5V4H15.5ZM12 15.5H4V16.5H12V15.5ZM0.5 12V4H-0.5V12H0.5ZM4 15.5C2.067 15.5 0.5 13.933 0.5 12H-0.5C-0.5 14.4853 1.51472 16.5 4 16.5V15.5ZM15.5 12C15.5 13.933 13.933 15.5 12 15.5V16.5C14.4853 16.5 16.5 14.4853 16.5 12H15.5ZM12 0.5C13.933 0.5 15.5 2.067 15.5 4H16.5C16.5 1.51472 14.4853 -0.5 12 -0.5V0.5ZM4 -0.5C1.51472 -0.5 -0.5 1.51472 -0.5 4H0.5C0.5 2.067 2.067 0.5 4 0.5V-0.5Z" fill="#616161"/>
</svg>
