<svg width="16" height="16" viewBox="0 0 16 16" fill="none" xmlns="http://www.w3.org/2000/svg">
<path d="M0.5 4.5C0.223858 4.5 0 4.72386 0 5C0 5.27614 0.223858 5.5 0.5 5.5V4.5ZM4.86736 6.17157L5.23146 5.82889L4.86736 6.17157ZM5.48558 6.82843L5.12148 7.17111V7.17111L5.48558 6.82843ZM0.5 10.5C0.223858 10.5 0 10.7239 0 11C0 11.2761 0.223858 11.5 0.5 11.5V10.5ZM4.86736 9.82843L5.23146 10.1711L4.86736 9.82843ZM5.48558 9.17157L5.12148 8.82889L5.48558 9.17157ZM16 8L11 5.11325V10.8868L16 8ZM0.5 5.5H2.20531V4.5H0.5V5.5ZM4.50326 6.51426L5.12148 7.17111L5.84968 6.48574L5.23146 5.82889L4.50326 6.51426ZM8.14763 8.5H8.94118V7.5H8.14763V8.5ZM8.94118 8.5H9.41177V7.5H8.94118V8.5ZM5.12148 7.17111C5.9186 8.01805 7.00644 8.5 8.14763 8.5V7.5C7.29189 7.5 6.46459 7.13909 5.84968 6.48574L5.12148 7.17111ZM2.20531 5.5C3.06105 5.5 3.88835 5.86091 4.50326 6.51426L5.23146 5.82889C4.43434 4.98195 3.3465 4.5 2.20531 4.5V5.5ZM0.5 11.5H2.20531V10.5H0.5V11.5ZM5.23146 10.1711L5.84968 9.51426L5.12148 8.82889L4.50326 9.48574L5.23146 10.1711ZM5.84968 9.51426C6.46459 8.86091 7.29189 8.5 8.14763 8.5V7.5C7.00644 7.5 5.9186 7.98195 5.12148 8.82889L5.84968 9.51426ZM2.20531 11.5C3.3465 11.5 4.43434 11.0181 5.23146 10.1711L4.50326 9.48574C3.88835 10.1391 3.06105 10.5 2.20531 10.5V11.5ZM9.41177 8.5H11.5V7.5H9.41177V8.5Z" fill="black"/>
</svg>
