<svg width="16" height="17" viewBox="0 0 16 17" fill="none" xmlns="http://www.w3.org/2000/svg">
<path d="M7.74359 8.33329L10.4103 1.66663L14.4103 11.6666C13.7721 12.1452 12.2941 12.4711 10.7436 12.5347" stroke="black"/>
<path d="M2.0769 10.3333V14.3333L6.0769 16.3333M2.0769 10.3333L6.0769 12.3333M2.0769 10.3333L6.0769 8.33325L10.0769 10.3333M6.0769 16.3333L10.0769 14.3333V10.3333M6.0769 16.3333V12.3333M10.0769 10.3333L6.0769 12.3333" stroke="black"/>
<path d="M11.053 6.87622L12.0769 10.3333" stroke="black"/>
<path d="M2.81543 8.34349C2.76403 7.01944 3.16097 6.35451 3.66775 5.84246C4.00767 5.49901 4.44267 5.26814 4.89675 5.10287L7.3423 4.21276M7.3423 4.21276C7.3423 4.21276 5.39815 3.62319 4.15242 3.24543M7.3423 4.21276L5.5205 7.0042" stroke="black"/>
</svg>
